<?xml version="1.0" standalone="no"?>
<!DOCTYPE svg PUBLIC "-//W3C//DTD SVG 20010904//EN"
 "http://www.w3.org/TR/2001/REC-SVG-20010904/DTD/svg10.dtd">
<svg version="1.0" xmlns="http://www.w3.org/2000/svg"
 width="784.000000pt" height="784.000000pt" viewBox="0 0 784.000000 784.000000"
 preserveAspectRatio="xMidYMid meet">
<metadata>
Created by potrace 1.14, written by Peter Selinger 2001-2017
</metadata>
<g transform="translate(0.000000,784.000000) scale(0.100000,-0.100000)"
fill="#000000" stroke="none">
<path d="M7415 7420 c-27 -4 -77 -19 -110 -33 -33 -13 -100 -30 -150 -37 -90
-12 -194 -40 -292 -79 -28 -11 -95 -32 -150 -46 -54 -14 -116 -37 -138 -49
-22 -13 -73 -33 -112 -45 -40 -12 -101 -37 -135 -55 -35 -18 -95 -45 -133 -59
-65 -25 -205 -125 -205 -146 0 -12 -142 -223 -185 -275 -22 -27 -53 -60 -68
-75 -15 -14 -48 -46 -73 -70 -39 -39 -46 -43 -60 -30 -25 25 -23 126 4 179 22
44 22 45 4 70 -41 55 -141 48 -248 -16 -33 -20 -86 -47 -119 -61 -33 -14 -75
-36 -93 -50 -18 -13 -65 -39 -105 -57 -40 -19 -86 -45 -102 -58 -17 -14 -46
-33 -65 -43 -38 -18 -152 -90 -228 -143 -78 -54 -211 -145 -267 -182 -29 -19
-67 -48 -86 -63 -19 -16 -77 -60 -129 -98 -109 -80 -180 -136 -290 -231 -66
-58 -82 -78 -103 -130 -27 -68 -61 -215 -78 -336 -6 -42 -23 -111 -39 -153
-15 -43 -35 -110 -44 -151 -20 -85 -45 -158 -57 -158 -16 0 -38 98 -44 197 -7
111 -26 198 -48 220 -11 11 -16 11 -29 -4 -39 -43 -100 -170 -124 -255 -14
-51 -43 -138 -64 -193 -21 -55 -48 -134 -60 -175 -12 -41 -32 -95 -45 -120
-12 -25 -37 -90 -55 -145 -17 -55 -42 -118 -55 -140 -12 -22 -35 -78 -50 -125
-15 -46 -37 -102 -50 -125 -13 -22 -35 -72 -49 -112 -14 -40 -37 -95 -51 -123
-14 -28 -39 -85 -55 -126 -15 -40 -41 -91 -58 -111 -16 -21 -35 -49 -42 -63
-17 -32 -84 -110 -188 -218 -88 -92 -157 -196 -216 -326 -36 -78 -123 -189
-264 -334 -31 -33 -131 -138 -222 -233 -91 -95 -188 -195 -215 -223 -28 -28
-140 -145 -250 -260 -305 -319 -405 -424 -460 -480 -27 -28 -120 -125 -205
-216 -85 -90 -175 -185 -200 -211 -213 -218 -340 -363 -340 -388 0 -28 40 -58
110 -80 36 -11 97 -31 135 -45 60 -21 93 -25 241 -29 232 -6 328 3 408 41 35
16 88 33 117 37 74 9 171 41 254 85 39 20 84 41 100 47 17 6 50 26 75 44 25
19 63 46 85 61 55 36 258 229 450 428 88 90 185 190 215 220 61 62 328 345
406 430 105 115 124 180 100 343 -8 56 -17 133 -20 170 l-5 68 51 57 c27 31
82 87 120 123 74 71 93 79 194 79 64 0 143 15 186 35 48 22 106 71 265 224
l142 136 103 38 c181 68 202 74 263 81 90 11 177 35 205 56 l25 19 -25 46
c-27 51 -53 76 -124 117 -54 32 -65 52 -42 77 29 32 130 89 180 102 58 14 295
6 399 -15 146 -28 224 5 393 170 50 49 167 161 260 249 93 88 182 174 199 191
16 17 118 112 225 211 254 236 254 236 241 261 -16 30 -64 43 -195 52 -145 10
-159 19 -124 76 13 22 28 48 34 58 6 11 28 29 50 39 21 11 69 37 105 59 37 21
102 52 145 69 44 17 99 43 124 58 25 16 70 34 100 41 69 16 275 124 298 157 9
13 33 44 52 67 54 66 153 206 182 256 14 25 36 54 48 65 12 11 31 38 42 60 12
22 33 56 48 75 15 19 39 58 53 86 14 28 38 65 52 82 15 18 40 59 56 93 16 34
45 84 64 112 19 29 35 56 35 62 0 5 22 55 50 110 27 55 58 128 68 162 22 71
15 90 -37 118 -26 13 -36 12 -95 -4 -36 -10 -84 -30 -105 -44 -22 -14 -68 -38
-102 -52 -35 -14 -93 -43 -129 -64 -36 -20 -81 -44 -100 -51 -19 -7 -55 -26
-79 -42 -24 -16 -71 -43 -105 -60 -33 -17 -74 -42 -90 -55 -16 -13 -61 -40
-100 -60 -39 -20 -82 -44 -96 -54 -52 -40 -219 -148 -256 -167 -21 -11 -48
-29 -58 -41 -10 -11 -40 -33 -65 -47 -25 -15 -67 -43 -92 -63 -26 -20 -66 -48
-90 -63 -24 -16 -64 -44 -89 -63 -51 -41 -106 -84 -235 -184 -118 -93 -183
-145 -254 -206 -32 -27 -92 -77 -132 -110 -40 -33 -98 -83 -128 -110 -31 -28
-72 -61 -91 -75 -19 -13 -49 -38 -66 -55 -17 -16 -62 -57 -99 -90 -37 -33 -88
-80 -114 -105 -27 -25 -97 -90 -157 -145 -162 -147 -901 -890 -908 -911 -3
-11 -19 -27 -36 -36 -25 -14 -63 -61 -73 -92 -2 -5 -13 -6 -25 -2 -19 7 -21
12 -16 49 10 80 14 87 49 104 24 11 38 27 46 50 6 18 28 47 49 64 21 17 41 41
44 54 3 12 21 36 39 52 18 16 39 38 47 49 20 29 111 133 195 224 39 42 133
146 210 231 196 217 528 552 740 747 99 90 194 180 210 198 37 40 349 321 470
424 179 152 226 193 351 304 28 26 65 56 82 69 17 12 74 58 127 102 53 44 113
93 133 108 21 15 48 38 62 50 14 13 47 38 73 56 26 18 53 41 60 52 7 11 37 36
68 55 31 18 62 41 69 49 7 8 43 35 81 60 38 25 69 49 69 54 0 5 30 30 68 55
37 26 103 73 147 106 44 33 97 71 118 85 96 65 117 79 187 131 41 30 105 74
141 99 37 24 70 48 73 54 4 6 37 28 74 50 86 51 207 164 190 179 -11 8 -115
35 -121 31 -1 -1 -24 -5 -52 -9z"/>
</g>
</svg>
