<svg width="19" height="18" viewBox="0 0 19 18" fill="none" xmlns="http://www.w3.org/2000/svg">
<path d="M12.875 3.9375H16.25" stroke="white" stroke-width="1.5" stroke-linecap="round" stroke-linejoin="round"/>
<path d="M14.5625 2.25V5.625" stroke="white" stroke-width="1.5" stroke-linecap="round" stroke-linejoin="round"/>
<path d="M2.67871 15.1868C3.37028 13.9898 4.36467 12.9959 5.562 12.3048C6.75934 11.6138 8.11744 11.25 9.49988 11.25C10.8823 11.25 12.2404 11.6138 13.4377 12.3049C14.635 12.996 15.6294 13.9899 16.321 15.187" stroke="white" stroke-width="1.5" stroke-linecap="round" stroke-linejoin="round"/>
<path d="M13.7221 8.30973C13.4213 9.12189 12.8925 9.82993 12.199 10.3488C11.5056 10.8677 10.6771 11.1753 9.81302 11.2347C8.94898 11.2941 8.08617 11.1028 7.32823 10.6837C6.57029 10.2647 5.94946 9.63567 5.54033 8.87232C5.13119 8.10897 4.95116 7.24374 5.02184 6.38055C5.09253 5.51736 5.41094 4.69294 5.93881 4.00633C6.46669 3.31972 7.18158 2.80011 7.9976 2.50994C8.81362 2.21978 9.69606 2.17138 10.5389 2.37058" stroke="white" stroke-width="1.5" stroke-linecap="round" stroke-linejoin="round"/>
</svg>
