<svg width="44" height="44" viewBox="0 0 44 44" fill="none" xmlns="http://www.w3.org/2000/svg">
<g id="File">
<path id="Vector" d="M34.3754 38.5H9.62402C9.25935 38.5 8.90961 38.3551 8.65175 38.0973C8.39389 37.8394 8.24902 37.4897 8.24902 37.125V6.875C8.24902 6.51033 8.39389 6.16059 8.65175 5.90273C8.90961 5.64487 9.25935 5.5 9.62402 5.5H26.1254L35.7504 15.125V37.125C35.7504 37.3056 35.7148 37.4844 35.6457 37.6512C35.5766 37.818 35.4753 37.9696 35.3476 38.0973C35.22 38.225 35.0684 38.3262 34.9016 38.3953C34.7347 38.4644 34.5559 38.5 34.3754 38.5Z" stroke="white" stroke-width="1.5" stroke-linecap="round" stroke-linejoin="round"/>
<path id="Vector_2" d="M26.125 5.5V15.125H35.7514" stroke="white" stroke-width="1.5" stroke-linecap="round" stroke-linejoin="round"/>
</g>
</svg>
