<svg width="20" height="18" viewBox="0 0 20 18" fill="none" xmlns="http://www.w3.org/2000/svg">
<path d="M16.1875 9.5626C16.1875 13.184 10.9535 14.4264 10.1132 14.6025C10.0386 14.6182 9.96145 14.6182 9.8868 14.6025C9.04654 14.4264 3.8125 13.184 3.8125 9.5626V5.45659C3.8125 5.34112 3.84803 5.22846 3.91427 5.13388C3.98052 5.03931 4.07426 4.96741 4.18277 4.92795L9.80777 2.8825C9.93195 2.83734 10.0681 2.83734 10.1922 2.8825L15.8172 4.92795C15.9257 4.96741 16.0195 5.03931 16.0857 5.13388C16.152 5.22846 16.1875 5.34112 16.1875 5.45659V9.5626Z" stroke="#675DDA" stroke-width="1.5" stroke-linecap="round" stroke-linejoin="round"/>
<path d="M7.1875 7.875H12.8125" stroke="#675DDA" stroke-width="1.5" stroke-linecap="round" stroke-linejoin="round"/>
<path d="M7.1875 10.125H12.8125" stroke="#675DDA" stroke-width="1.5" stroke-linecap="round" stroke-linejoin="round"/>
<path d="M16.0059 10.6875H16.7505C17.198 10.6875 17.6273 10.5097 17.9437 10.1932C18.2602 9.87678 18.438 9.44755 18.438 9V7.3125C18.438 6.86495 18.2602 6.43572 17.9437 6.11926C17.6273 5.80279 17.198 5.625 16.7505 5.625H16.188" stroke="#675DDA" stroke-width="1.5" stroke-linecap="round" stroke-linejoin="round"/>
<path d="M3.99469 10.6875H3.25C2.80245 10.6875 2.37322 10.5097 2.05676 10.1932C1.74029 9.87678 1.5625 9.44755 1.5625 9V7.3125C1.5625 6.86495 1.74029 6.43572 2.05676 6.11926C2.37322 5.80279 2.80245 5.625 3.25 5.625H3.8125" stroke="#675DDA" stroke-width="1.5" stroke-linecap="round" stroke-linejoin="round"/>
</svg>
