<svg width="18" height="18" viewBox="0 0 18 18" fill="none" xmlns="http://www.w3.org/2000/svg">
<path d="M6.75 11.25H2.8125C2.66332 11.25 2.52024 11.1907 2.41475 11.0852C2.30926 10.9798 2.25 10.8367 2.25 10.6875V7.3125C2.25 7.16332 2.30926 7.02024 2.41475 6.91475C2.52024 6.80926 2.66332 6.75 2.8125 6.75H6.75V2.8125C6.75 2.66332 6.80926 2.52024 6.91475 2.41475C7.02024 2.30926 7.16332 2.25 7.3125 2.25H10.6875C10.8367 2.25 10.9798 2.30926 11.0852 2.41475C11.1907 2.52024 11.25 2.66332 11.25 2.8125V6.75H15.1875C15.3367 6.75 15.4798 6.80926 15.5852 6.91475C15.6907 7.02024 15.75 7.16332 15.75 7.3125V10.6875C15.75 10.8367 15.6907 10.9798 15.5852 11.0852C15.4798 11.1907 15.3367 11.25 15.1875 11.25H11.25V15.1875C11.25 15.3367 11.1907 15.4798 11.0852 15.5852C10.9798 15.6907 10.8367 15.75 10.6875 15.75H7.3125C7.16332 15.75 7.02024 15.6907 6.91475 15.5852C6.80926 15.4798 6.75 15.3367 6.75 15.1875V11.25Z" stroke="#675DDA" stroke-width="1.5" stroke-linecap="round" stroke-linejoin="round"/>
</svg>
