<svg width="18" height="18" viewBox="0 0 18 18" fill="none" xmlns="http://www.w3.org/2000/svg">
<g id="Trash">
<path id="Vector" d="M15.187 3.9375L2.81201 3.93751" stroke="#675DDA" stroke-width="1.5" stroke-linecap="round" stroke-linejoin="round"/>
<path id="Vector_2" d="M7.3125 7.3125V11.8125" stroke="#675DDA" stroke-width="1.5" stroke-linecap="round" stroke-linejoin="round"/>
<path id="Vector_3" d="M10.6875 7.3125V11.8125" stroke="#675DDA" stroke-width="1.5" stroke-linecap="round" stroke-linejoin="round"/>
<path id="Vector_4" d="M14.062 3.9375V14.625C14.062 14.7742 14.0027 14.9173 13.8973 15.0227C13.7918 15.1282 13.6487 15.1875 13.4995 15.1875H4.49951C4.35033 15.1875 4.20725 15.1282 4.10176 15.0227C3.99628 14.9173 3.93701 14.7742 3.93701 14.625V3.9375" stroke="#675DDA" stroke-width="1.5" stroke-linecap="round" stroke-linejoin="round"/>
<path id="Vector_5" d="M11.8125 3.9375V2.8125C11.8125 2.51413 11.694 2.22798 11.483 2.017C11.272 1.80603 10.9859 1.6875 10.6875 1.6875H7.3125C7.01413 1.6875 6.72798 1.80603 6.51701 2.017C6.30603 2.22798 6.1875 2.51413 6.1875 2.8125V3.9375" stroke="#675DDA" stroke-width="1.5" stroke-linecap="round" stroke-linejoin="round"/>
</g>
</svg>
