<svg xmlns="http://www.w3.org/2000/svg" xmlns:xlink="http://www.w3.org/1999/xlink"><symbol id="bell" viewBox="0 0 24 24"><g stroke-width="2" stroke-linecap="round" stroke-linejoin="round"><path d="M5.269 9.75A6.74 6.74 0 0112.05 3c3.711.028 6.68 3.113 6.68 6.835v.665c0 3.358.703 5.306 1.321 6.371A.75.75 0 0119.407 18H4.592a.749.749 0 01-.645-1.13c.619-1.064 1.322-3.013 1.322-6.37v-.75z"/><path d="M9 18v.75a3 3 0 006 0V18"/></g></symbol><symbol id="caret-up" viewBox="0 0 24 24"><path d="M4.5 15L12 7.5l7.5 7.5" stroke-width="1.5" stroke-linecap="round" stroke-linejoin="round"/></symbol><symbol id="carret-left" viewBox="0 0 18 18"><path d="M11.25 14.625L5.625 9l5.625-5.625" stroke-width="1.5" stroke-linecap="round" stroke-linejoin="round"/></symbol><symbol id="check-bold" viewBox="0 0 10 6"><path d="M8.75.75l-5 4.5L1.25 3" stroke-width="1.5" stroke-linecap="round" stroke-linejoin="round"/></symbol><symbol id="check" viewBox="0 0 32 32"><path d="M27 9.001l-14 14-7-7" stroke-width="1.5" stroke-linecap="round" stroke-linejoin="round"/></symbol><symbol id="close" viewBox="0 0 13 12"><g stroke-linecap="round" stroke-linejoin="round"><path d="M10.175 2.625l-6.75 6.75M10.175 9.375l-6.75-6.75"/></g></symbol><symbol id="file" viewBox="0 0 44 44"><g stroke-width="1.5" stroke-linecap="round" stroke-linejoin="round"><path d="M34.375 38.5H9.624a1.375 1.375 0 01-1.375-1.375V6.875A1.375 1.375 0 019.624 5.5h16.501l9.625 9.625v22a1.375 1.375 0 01-1.375 1.375z"/><path d="M26.125 5.5v9.625h9.626"/></g></symbol><symbol id="info" viewBox="0 0 24 24"><path d="M12 21a9 9 0 100-18 9 9 0 000 18z" stroke-width="1.5" stroke-linecap="round" stroke-linejoin="round"/><path d="M11.25 11.25H12v5.25h.75" stroke-width="1.5" stroke-linecap="round" stroke-linejoin="round"/><path d="M12 9a1.125 1.125 0 100-2.25A1.125 1.125 0 0012 9z"/></symbol><symbol id="paperclip" viewBox="0 0 25 24"><path d="M15.5 7.5l-7.81 7.94a1.5 1.5 0 102.12 2.121l9.31-9.44a3.002 3.002 0 00-.973-4.893 3 3 0 00-3.269.65l-9.31 9.44a4.5 4.5 0 106.364 6.364L19.625 12" stroke-width="1.5" stroke-linecap="round" stroke-linejoin="round"/></symbol><symbol id="plus-icon" viewBox="0 0 18 18"><path d="M2.813 9h12.374M9 2.813v12.374" stroke-width="1.5" stroke-linecap="round" stroke-linejoin="round"/></symbol><symbol id="search" viewBox="0 0 24 24"><path d="M10.875 18.75a7.875 7.875 0 100-15.75 7.875 7.875 0 000 15.75zM16.443 16.443L21 21" stroke-width="2" stroke-linecap="round" stroke-linejoin="round"/></symbol><symbol id="trash" viewBox="0 0 18 18"><g stroke-width="1.5" stroke-linecap="round" stroke-linejoin="round"><path d="M15.187 3.938H2.812M7.313 7.313v4.5M10.688 7.313v4.5M14.062 3.938v10.687a.563.563 0 01-.563.563h-9a.563.563 0 01-.562-.563V3.937"/><path d="M11.813 3.938V2.812a1.125 1.125 0 00-1.126-1.124H7.313a1.125 1.125 0 00-1.125 1.125v1.124"/></g></symbol><symbol id="user" viewBox="0 0 24 24"><g stroke-width="2"><path d="M12 15a6 6 0 100-12 6 6 0 000 12z" stroke-miterlimit="10"/><path d="M2.905 20.25a10.504 10.504 0 0118.19 0" stroke-linecap="round" stroke-linejoin="round"/></g></symbol></svg>