<svg xmlns="http://www.w3.org/2000/svg" xmlns:xlink="http://www.w3.org/1999/xlink"><symbol id="arrowDown" viewBox="0 0 17 16"><g opacity=".4" stroke-width="1.5" stroke-linecap="round" stroke-linejoin="round"><path d="M8.5 2.5v11M4 9l4.5 4.5L13 9"/></g></symbol><symbol id="arrowUp" viewBox="0 0 17 16"><g opacity=".4" stroke-width="1.5" stroke-linecap="round" stroke-linejoin="round"><path d="M8.1 13.5v-11M3.6 7l4.5-4.5L12.6 7"/></g></symbol><symbol id="bell" viewBox="0 0 24 24"><g stroke-width="2" stroke-linecap="round" stroke-linejoin="round"><path d="M5.269 9.75A6.74 6.74 0 0112.05 3c3.711.028 6.68 3.113 6.68 6.835v.665c0 3.358.703 5.306 1.321 6.371A.75.75 0 0119.407 18H4.592a.749.749 0 01-.645-1.13c.619-1.064 1.322-3.013 1.322-6.37v-.75z"/><path d="M9 18v.75a3 3 0 006 0V18"/></g></symbol><symbol id="caret-up" viewBox="0 0 24 24"><path d="M4.5 15L12 7.5l7.5 7.5" stroke-width="1.5" stroke-linecap="round" stroke-linejoin="round"/></symbol><symbol id="carret-left" viewBox="0 0 18 18"><path d="M11.25 14.625L5.625 9l5.625-5.625" stroke-width="1.5" stroke-linecap="round" stroke-linejoin="round"/></symbol><symbol id="check-bold" viewBox="0 0 10 6"><path d="M8.75.75l-5 4.5L1.25 3" stroke-width="1.5" stroke-linecap="round" stroke-linejoin="round"/></symbol><symbol id="check" viewBox="0 0 32 32"><path d="M27 9.001l-14 14-7-7" stroke-width="1.5" stroke-linecap="round" stroke-linejoin="round"/></symbol><symbol id="close" viewBox="0 0 13 12"><g stroke-linecap="round" stroke-linejoin="round"><path d="M10.175 2.625l-6.75 6.75M10.175 9.375l-6.75-6.75"/></g></symbol><symbol id="email" viewBox="0 0 24 24"><path d="M3 5.25h18V18a.75.75 0 01-.75.75H3.75A.75.75 0 013 18V5.25z" stroke-width="1.5" stroke-linecap="round" stroke-linejoin="round"/><path d="M21 5.25l-9 8.25-9-8.25" stroke-width="1.5" stroke-linecap="round" stroke-linejoin="round"/></symbol><symbol id="file" viewBox="0 0 44 44"><g stroke-width="1.5" stroke-linecap="round" stroke-linejoin="round"><path d="M34.375 38.5H9.624a1.375 1.375 0 01-1.375-1.375V6.875A1.375 1.375 0 019.624 5.5h16.501l9.625 9.625v22a1.375 1.375 0 01-1.375 1.375z"/><path d="M26.125 5.5v9.625h9.626"/></g></symbol><symbol id="heartbeat" viewBox="0 0 18 18"><g stroke-width="1.5" stroke-linecap="round" stroke-linejoin="round"><path d="M2.25 9h2.813l1.125-1.688 2.25 3.375L9.562 9h1.688"/><path d="M1.977 6.75a4.967 4.967 0 01-.008-.281A3.657 3.657 0 019 5.06h0a3.657 3.657 0 017.031 1.409C16.031 11.25 9 15.187 9 15.187s-2.809-1.572-4.876-3.937"/></g></symbol><symbol id="house" viewBox="0 0 24 24"><path d="M14.25 19.5V15a.75.75 0 00-.75-.75h-3a.75.75 0 00-.75.75v4.5a.75.75 0 01-.75.75H4.5a.748.748 0 01-.75-.75v-8.668a.75.75 0 01.245-.555l7.5-6.82a.75.75 0 011.009 0l7.5 6.82a.75.75 0 01.246.555V19.5a.75.75 0 01-.75.75H15a.75.75 0 01-.75-.75v0z" stroke-width="1.5" stroke-linecap="round" stroke-linejoin="round"/></symbol><symbol id="info" viewBox="0 0 24 24"><path d="M12 21a9 9 0 100-18 9 9 0 000 18z" stroke-width="1.5" stroke-linecap="round" stroke-linejoin="round"/><path d="M11.25 11.25H12v5.25h.75" stroke-width="1.5" stroke-linecap="round" stroke-linejoin="round"/><path d="M12 9a1.125 1.125 0 100-2.25A1.125 1.125 0 0012 9z"/></symbol><symbol id="list" viewBox="0 0 18 18"><path d="M11.813 1.688H6.186V4.5h5.625V1.687z" stroke-width="1.5" stroke-linecap="round" stroke-linejoin="round"/><path d="M11.813 2.813h2.25a.562.562 0 01.562.562v11.813a.562.562 0 01-.563.562H3.938a.563.563 0 01-.563-.563V3.376a.563.563 0 01.563-.563h2.25" stroke-width="1.5" stroke-linecap="round" stroke-linejoin="round"/></symbol><symbol id="mask" viewBox="0 0 20 18"><path d="M16.188 9.563c0 3.621-5.234 4.863-6.075 5.04a.55.55 0 01-.226 0c-.84-.177-6.075-1.419-6.075-5.04V5.457a.563.563 0 01.37-.529l5.626-2.046a.562.562 0 01.384 0l5.625 2.046a.562.562 0 01.37.529v4.106zM7.188 7.875h5.625M7.188 10.125h5.625" stroke-width="1.5" stroke-linecap="round" stroke-linejoin="round"/><path d="M16.006 10.688h.744A1.687 1.687 0 0018.438 9V7.312a1.687 1.687 0 00-1.688-1.687h-.562M3.995 10.688H3.25A1.687 1.687 0 011.562 9V7.312A1.687 1.687 0 013.25 5.625h.563" stroke-width="1.5" stroke-linecap="round" stroke-linejoin="round"/></symbol><symbol id="paperclip" viewBox="0 0 25 24"><path d="M15.5 7.5l-7.81 7.94a1.5 1.5 0 102.12 2.121l9.31-9.44a3.002 3.002 0 00-.973-4.893 3 3 0 00-3.269.65l-9.31 9.44a4.5 4.5 0 106.364 6.364L19.625 12" stroke-width="1.5" stroke-linecap="round" stroke-linejoin="round"/></symbol><symbol id="pencil" viewBox="0 0 18 18"><g stroke-width="1.5" stroke-linecap="round" stroke-linejoin="round"><path d="M6.75 15.187H3.375a.562.562 0 01-.563-.562v-3.142a.562.562 0 01.165-.398l8.438-8.437a.562.562 0 01.795 0l3.142 3.142a.563.563 0 010 .795L6.75 15.187zM9.563 4.5L13.5 8.438"/></g></symbol><symbol id="phone" viewBox="0 0 24 24"><path d="M8.67 11.701a7.908 7.908 0 003.66 3.645.743.743 0 00.735-.056l2.347-1.565a.75.75 0 01.711-.065l4.391 1.882a.748.748 0 01.45.778 4.5 4.5 0 01-4.464 3.93A12.75 12.75 0 013.75 7.5a4.5 4.5 0 013.93-4.464.747.747 0 01.778.45l1.884 4.394a.751.751 0 01-.062.706L8.72 10.97a.743.743 0 00-.05.731v0z" stroke-width="1.5" stroke-linecap="round" stroke-linejoin="round"/></symbol><symbol id="plus-icon" viewBox="0 0 18 18"><path d="M2.813 9h12.374M9 2.813v12.374" stroke-width="1.5" stroke-linecap="round" stroke-linejoin="round"/></symbol><symbol id="plus" viewBox="0 0 18 18"><path d="M6.75 11.25H2.812a.563.563 0 01-.562-.563V7.313a.563.563 0 01.563-.563H6.75V2.812a.563.563 0 01.563-.562h3.375a.562.562 0 01.562.563V6.75h3.938a.562.562 0 01.562.563v3.375a.562.562 0 01-.563.562H11.25v3.938a.562.562 0 01-.563.562H7.313a.563.563 0 01-.563-.563V11.25z" stroke-width="1.5" stroke-linecap="round" stroke-linejoin="round"/></symbol><symbol id="printer" viewBox="0 0 19 18"><path d="M5 5.625V2.812h9v2.813M14 10.688H5v4.78h9v-4.78z" stroke-width="1.5" stroke-linecap="round" stroke-linejoin="round"/><path d="M5 12.375H2.469V6.75c0-.621.545-1.125 1.219-1.125h11.624c.674 0 1.22.504 1.22 1.125v5.625H14" stroke-width="1.5" stroke-linecap="round" stroke-linejoin="round"/><path d="M13.719 9a.844.844 0 100-1.688.844.844 0 000 1.688z"/></symbol><symbol id="search" viewBox="0 0 24 24"><path d="M10.875 18.75a7.875 7.875 0 100-15.75 7.875 7.875 0 000 15.75zM16.443 16.443L21 21" stroke-width="2" stroke-linecap="round" stroke-linejoin="round"/></symbol><symbol id="settings" viewBox="0 0 18 18"><g stroke-width="1.5" stroke-linecap="round" stroke-linejoin="round"><path d="M9 8.438v6.75M9 2.813v3.374M14.063 14.063v1.124M14.063 2.813v9M15.75 11.813h-3.375M3.938 11.813v3.374M3.938 2.813v6.75M2.25 9.563h3.375M10.688 6.188H7.312"/></g></symbol><symbol id="trash" viewBox="0 0 18 18"><g stroke-width="1.5" stroke-linecap="round" stroke-linejoin="round"><path d="M15.187 3.938H2.812M7.313 7.313v4.5M10.688 7.313v4.5M14.062 3.938v10.687a.563.563 0 01-.563.563h-9a.563.563 0 01-.562-.563V3.937"/><path d="M11.813 3.938V2.812a1.125 1.125 0 00-1.126-1.124H7.313a1.125 1.125 0 00-1.125 1.125v1.124"/></g></symbol><symbol id="user" viewBox="0 0 24 24"><g stroke-width="2"><path d="M12 15a6 6 0 100-12 6 6 0 000 12z" stroke-miterlimit="10"/><path d="M2.905 20.25a10.504 10.504 0 0118.19 0" stroke-linecap="round" stroke-linejoin="round"/></g></symbol><symbol id="x" viewBox="0 0 17 16"><g opacity=".4" stroke-width="1.5" stroke-linecap="round" stroke-linejoin="round"><path d="M13.2 3.5l-9 9M13.2 12.5l-9-9"/></g></symbol></svg>